<svg width="237" height="237" viewBox="0 0 237 237" fill="none" xmlns="http://www.w3.org/2000/svg"><g id="icon / APE"><path id="APE" fill-rule="evenodd" clip-rule="evenodd" d="M237 118.5C237 183.946 183.946 237 118.5 237C53.0543 237 0 183.946 0 118.5C0 53.0543 53.0543 0 118.5 0C183.946 0 237 53.0543 237 118.5ZM193.233 85.7477C192.767 88.4731 192.222 89.7944 191.583 91.3236L191.582 91.3269L191.581 91.3286C190.892 92.9862 190.11 94.8677 189.402 98.5992C189.12 100.092 188.98 101.187 188.857 102.153L188.857 102.153L188.857 102.155L188.857 102.155L188.849 102.215L188.842 102.271C188.645 103.819 188.512 104.861 187.884 106.716C187.373 108.231 186.521 110.758 184.466 113.481C182.807 115.684 180.03 119.371 176.323 119.813C176.001 119.835 175.328 119.869 175.054 119.728C164.539 114.359 155.505 110.391 152.378 109.501C148.74 108.471 149.206 100.54 149.617 93.5442C149.802 90.4172 149.977 87.4604 149.83 84.9285C149.319 76.0957 147.755 66.428 140.063 61.715C135.471 58.9022 129.547 58.077 123.887 58.0654C124.936 57.5664 126.106 56.8883 127.38 56.1461L127.419 56.1236C130.752 54.1935 134.889 51.7981 138.999 51.3763C139.981 51.2796 140.95 51.1705 141.908 51.0627C142.263 51.0227 142.616 50.983 142.968 50.9441C151.255 50.0055 158.414 49.1994 165.966 51.7852C169.388 52.9594 176.411 56.8766 178.224 60.5144C179.5 63.0813 181.654 65.0834 185.95 69.0778C188.187 71.1588 189.661 72.3688 190.739 73.2542L190.789 73.2947C192.303 74.5403 192.602 74.8008 193.052 75.7218C194.446 78.5593 193.938 81.5729 193.233 85.7477ZM155.254 123.462C155.602 122.926 155.375 122.19 154.769 121.983C153.192 121.445 151.711 121.018 150.537 120.819C146.104 120.074 142.64 122.698 141.504 123.56C140.429 124.375 140.398 124.515 140.315 124.885L140.315 124.886C140.122 125.782 139.812 126.82 138.415 128.732C135.787 132.344 134.012 133.464 132.717 134.277L132.705 134.285C131.785 134.868 131.222 135.225 130.502 136.383C129.912 137.345 129.927 138.276 130.04 140.486C130.102 141.597 130.173 142.973 130.128 144.67V145.045C130.123 146.886 130.084 148.372 130.022 149.579C129.989 150.227 130.586 150.744 131.185 150.497C131.279 150.459 131.369 150.42 131.459 150.381L131.465 150.379L131.472 150.375C132.062 150.118 132.733 149.825 134.243 149.591C142.901 148.273 144.149 148.001 145.369 147.183C146.846 146.198 146.971 145.063 147.111 142.591C147.24 140.227 147.406 137.282 149.443 133.784C150.018 132.792 150.703 131.52 151.427 130.173C152.912 127.419 154.16 125.149 155.254 123.462ZM120.538 161.974C120.349 162.22 120.129 162.333 119.81 162.349C118.905 162.387 118.269 162.163 117.849 161.657C116.955 160.57 117.076 158.385 117.284 157.109L120.945 156.133C121.232 158.071 121.367 160.894 120.538 161.974ZM120.709 150.527C120.706 149.899 120.773 149.298 120.834 148.764C120.872 148.476 120.91 148.112 120.92 147.867C120.292 147.773 119.304 147.981 118.547 148.144C118.169 148.231 117.817 148.307 117.472 148.356C117.301 148.692 117.308 149.814 117.313 150.521L117.313 150.555C117.313 150.654 117.314 150.754 117.314 150.853C117.315 151.053 117.316 151.254 117.313 151.456C117.311 151.617 117.305 151.784 117.299 151.952C117.294 152.069 117.29 152.186 117.287 152.304L117.285 152.355V152.355C117.27 152.727 117.25 153.248 117.268 153.602C118.551 153.624 119.528 153.624 120.671 153.208C120.746 152.819 120.735 152.011 120.726 151.417L120.724 151.227C120.717 150.998 120.714 150.762 120.709 150.527ZM114.06 160.841C113.883 162.718 113.304 165.039 111.543 165.391C110.752 165.554 110.369 165.315 110.127 165.088C108.938 163.987 108.749 160.659 108.915 158.278C109.707 158.293 110.744 158.115 111.974 157.877C112.723 157.728 113.47 157.562 114.063 157.426C114.132 158.308 114.181 159.565 114.06 160.841ZM109.258 155.503L113.229 154.11C113.243 152.536 113.243 149.946 113.137 148.766L110.627 148.903L110.544 148.891C110.531 148.891 110.519 148.89 110.507 148.889L110.505 148.889C110.494 148.887 110.484 148.887 110.473 148.887C110.326 148.887 110.272 148.934 110.246 148.958C110.167 149.025 109.891 149.336 109.823 150.35C109.728 151.792 109.459 153.962 109.258 155.503ZM106.812 152.875C106.588 153.473 106.323 155.166 106.158 156.357L101.183 156.206C101.464 154.665 101.852 153.098 102.28 151.848C102.712 150.607 103.178 149.676 103.605 149.414C104.104 149.114 105.203 149.047 105.877 149.622C106.971 150.554 107.274 151.622 106.812 152.875ZM103.61 168.952C104.141 168.895 104.569 168.627 104.955 168.101C106.484 166.018 106.439 161.109 106.281 159.207C105.224 159.268 102.998 159.668 100.934 160.138L100.933 160.182C100.876 162.469 100.759 167.144 102.312 168.577C102.649 168.891 103.069 169.013 103.61 168.952ZM98.4621 156.07L98.366 156.326C98.158 156.879 97.9613 157.402 97.8073 157.871C97.2282 158.053 95.4602 157.895 93.6543 157.496L94.8955 149.667C96.9357 149.126 99.3017 148.951 99.8735 149.558C100.627 150.359 99.114 154.363 98.4621 156.07ZM91.7789 171.02C93.7972 171.041 95.2436 170.485 96.2084 169.297C97.4336 167.775 97.6722 165.406 97.5981 163.504C97.5719 162.882 97.5151 162.312 97.4467 161.842L90.7079 161.438C89.6094 164.111 88.5121 168.294 89.6327 170.069C89.8829 170.467 90.382 170.996 91.7789 171.02ZM151.895 112.475C145.829 110.756 146.351 101.886 146.856 93.3124C147.035 90.2786 147.204 87.4105 147.066 85.0648C146.6 77.0399 145.251 68.3006 138.796 64.3439C131.854 60.0985 120.497 61.0662 113.49 61.9578C113.487 61.9581 113.484 61.9593 113.481 61.9605C113.479 61.9612 113.477 61.962 113.475 61.9625C113.474 61.9629 113.472 61.9632 113.471 61.9634C113.468 61.9635 113.466 61.9639 113.463 61.9647C110.896 62.7425 108.495 63.2467 106.634 63.148C102.511 62.9346 99.2998 61.2029 96.4721 59.678L96.4494 59.6657C94.2392 58.4682 92.311 57.4336 90.4951 57.4336H90.4949C90.3989 57.4336 90.2986 57.4336 90.1998 57.438C84.7678 57.7901 82.2708 59.1172 80.0022 61.1413C79.4318 61.6463 78.7364 63.1087 76.459 69.6712C75.321 72.9538 75.1014 74.765 74.8896 76.5118V76.5119L74.8831 76.5655L74.8805 76.588V76.5881C74.6892 78.1919 74.492 79.8452 73.639 82.3059C73.0617 83.9561 72.6316 85.3871 72.218 86.7635L72.2178 86.7641L72.1766 86.9013C71.0532 90.67 70.1657 93.6384 67.4984 97.1685C67.2135 97.5488 66.8658 98.0922 66.4675 98.7148L66.4668 98.7158L66.4665 98.7162L66.3488 98.9001L66.2889 98.9946C65.6943 99.9311 64.9632 101.083 64.0075 102.409C63.3106 103.375 61.7099 106.991 61.7973 108.092C61.9263 109.819 62.4816 110.901 63.1212 112.147L63.1506 112.204L63.1608 112.224C63.8071 113.472 64.5394 114.886 64.674 116.835L64.6958 117.152C64.9345 120.258 64.4908 121.817 58.5813 127.096C54.8034 130.476 52.1192 133.734 50.3087 136.124C50.1491 136.335 50.3568 136.648 50.6204 136.627C50.6816 136.618 50.7426 136.614 50.7994 136.614C50.913 136.605 51.0264 136.601 51.1385 136.601C51.2521 136.601 51.3655 136.605 51.4775 136.609C51.5911 136.614 51.7003 136.623 51.8123 136.64C53.2414 136.803 54.6344 137.407 55.6399 138.449C55.8147 138.63 56.0864 138.679 56.3201 138.586C57.282 138.186 58.3399 138.251 59.3497 138.346C60.5513 138.457 61.7648 138.808 62.5926 139.553C62.9078 139.837 63.3404 139.988 63.7559 139.902C64.6964 139.709 65.6765 139.742 66.5876 140.073C67.2629 140.324 67.8424 140.707 68.3172 141.186C68.7646 141.638 69.522 141.728 70.0744 141.413C70.2954 141.287 70.5332 141.179 70.7914 141.091C72.0748 140.656 73.4935 140.904 74.7391 141.352L74.8097 141.377L74.8587 141.395L75.0089 141.448L75.01 141.448C75.5393 141.634 76.0772 141.823 76.5493 142.139C77.4624 142.747 78.0562 143.608 78.4547 144.578C78.7608 145.323 79.7797 145.578 80.4335 145.108C81.2192 144.542 81.8674 144.47 82.521 144.76C82.7915 144.882 83.0025 145.037 83.1643 145.223C83.6327 145.763 84.3853 146.301 85.0809 146.137C87.0186 145.679 89.3646 145.982 91.086 146.904C91.7213 147.239 92.3466 147.748 92.8035 148.518L92.8041 148.519L92.8045 148.52C92.8048 148.523 92.8091 148.522 92.8095 148.519L92.8618 148.176C92.8853 148.021 92.9954 147.894 93.1452 147.847L93.5624 147.718C94.5461 147.405 99.5591 145.96 101.509 148.013C101.593 148.098 101.74 148.106 101.821 148.018C102.087 147.727 102.302 147.567 102.44 147.488C103.711 146.718 105.887 146.67 107.337 147.91C107.628 148.155 108.101 148.066 108.321 147.755C108.456 147.563 108.61 147.395 108.782 147.249C109.291 146.81 109.935 146.6 110.649 146.644L113.403 146.496C114.096 146.458 116.248 146.311 116.926 146.168C116.952 146.162 116.978 146.157 117.004 146.152C117.031 146.148 117.057 146.143 117.085 146.139C117.33 146.102 117.616 146.042 117.917 145.979L118.068 145.947C119.404 145.656 120.919 145.329 122.163 145.903C123.359 146.456 123.208 147.818 123.064 149.019L123.059 149.062L123.059 149.062C123.003 149.536 122.946 150.03 122.95 150.499C122.959 150.724 122.963 150.951 122.968 151.183L122.969 151.263C122.986 152.267 123.002 153.193 122.802 153.909C122.802 153.91 122.802 153.912 122.802 153.913L122.802 153.916L122.802 153.917L122.928 154.486C123.06 155.045 123.657 155.36 124.146 155.058C125.076 154.483 126.034 153.758 126.34 153.328C126.368 153.289 126.39 153.246 126.406 153.2C126.449 153.084 126.524 152.845 126.607 152.363C126.777 151.34 126.968 149.26 126.985 145.038L126.985 144.88L126.985 144.807C126.986 144.703 126.987 144.626 126.989 144.581C127.024 143.014 126.963 141.756 126.902 140.646L126.902 140.633C126.788 138.35 126.699 136.552 127.833 134.722C128.934 132.946 130.004 132.269 131.031 131.619L131.045 131.61C132.245 130.857 133.6 130.003 135.88 126.875C136.999 125.334 137.138 124.713 137.247 124.216C137.494 123.054 137.878 122.354 139.605 121.049L139.612 121.043C141.025 119.976 145.298 116.746 151.06 117.715C152.953 118.036 156.02 119.046 159.048 120.239L159.05 120.239C159.051 120.239 159.052 120.24 159.053 120.24C159.054 120.24 159.055 120.24 159.056 120.24C159.166 120.272 159.277 120.309 159.38 120.362L159.418 120.381L159.438 120.391L159.456 120.4L159.47 120.407C159.488 120.415 159.506 120.423 159.525 120.431C162.143 121.476 164.69 122.639 166.376 123.586C166.856 123.855 167.467 123.695 167.817 123.27C168.337 122.638 168.902 122.253 169.508 121.89L169.548 121.865C169.772 121.729 169.949 121.621 170.118 121.476C170.686 120.994 170.68 119.983 170.017 119.642C161.96 115.503 154.407 113.189 151.895 112.475ZM94.0863 114.342C92.2107 122.554 79.4886 131.581 73.706 131.581H73.5924C73.5008 131.576 73.4003 131.568 73.2927 131.55C73.1835 131.533 73.0657 131.506 72.9405 131.472C72.9159 131.464 72.8905 131.457 72.8647 131.449C72.8265 131.437 72.7874 131.425 72.7484 131.415C71.6993 131.084 70.2458 130.278 69.1457 129.196C68.389 128.452 67.7924 127.576 67.6047 126.632L67.5713 126.474L67.4999 126.136C67.1871 124.739 66.7986 122.994 68.0309 120.139C68.1708 119.824 68.2981 119.527 68.4165 119.25L68.4177 119.247L68.4922 119.072C68.5235 118.994 68.557 118.916 68.5895 118.84L68.6276 118.751C68.7585 118.442 68.875 118.159 68.9797 117.902C69.1543 117.467 69.297 117.098 69.4148 116.784C69.4627 116.661 69.5064 116.543 69.5457 116.436C69.8939 115.459 69.9405 115.086 69.9879 114.708L69.9895 114.695L69.9994 114.626L70.0085 114.562L70.0085 114.562C70.0473 114.287 70.0944 113.954 70.1992 113.507C70.56 111.966 70.7477 110.66 70.9136 109.498C71.209 107.408 71.4666 105.602 72.5928 103.945C72.7848 103.663 72.9973 103.405 73.2374 103.18C73.3204 103.101 73.3989 103.027 73.4848 102.953C73.5617 102.887 73.6388 102.829 73.7148 102.771L73.7151 102.771L73.7453 102.748C74.0187 102.555 74.3113 102.387 74.6284 102.243L74.6357 102.239C74.7425 102.192 74.8492 102.146 74.9544 102.107C75.1771 102.024 75.4112 101.954 75.6557 101.893C76.6919 101.642 77.9141 101.602 79.3197 101.78C80.8565 101.902 82.2794 102.193 83.541 102.545C84.5946 102.836 85.5347 103.177 86.3306 103.494C86.4135 103.525 86.4921 103.555 86.5706 103.59C86.7235 103.651 86.8704 103.712 87.0144 103.778C87.1973 103.855 87.3668 103.928 87.5273 103.998L87.6197 104.038C87.8057 104.123 87.9802 104.201 88.1407 104.273L88.2949 104.342L88.4826 104.43C89.3704 104.834 90.1328 105.278 90.7847 105.744C91.1062 105.979 91.4075 106.218 91.6766 106.461C91.7683 106.54 91.8557 106.623 91.9371 106.71C92.0243 106.793 92.1073 106.876 92.1845 106.959C94.629 109.533 94.5083 112.51 94.0863 114.342ZM99.9824 83.2154L99.735 84.704C99.1648 88.0595 97.855 92.6592 93.0241 93.8436C88.3765 94.9801 87.2749 95.2231 83.9675 95.3715C83.8932 95.3802 83.8146 95.3802 83.7361 95.3802C81.3206 95.3802 76.6729 93.8567 75.8492 90.0705C75.3244 87.6422 76.3899 85.8798 78.149 82.9703L78.1688 82.9376L78.2666 82.7776L78.2677 82.7759C78.5349 82.339 78.8203 81.8724 79.1218 81.3573C81.4606 77.4181 82.3837 74.5652 83.1239 72.2775L83.124 72.2774L83.1263 72.2701C83.8481 70.0335 84.449 68.1841 85.9944 66.6518C86.351 66.2954 86.7555 65.9592 87.2254 65.6375C87.5252 65.4325 87.8396 65.2505 88.1698 65.0804C88.6093 64.862 89.0706 64.6714 89.5536 64.5186C90.6289 64.1753 91.7902 64.0007 92.9527 64.0007C95.2068 64.0007 97.4578 64.6495 99.0629 65.9373C99.7845 66.5164 100.812 67.6733 101.408 71.0856C101.716 72.8434 101.193 76.0736 99.9824 83.2154ZM134.447 92.7639L134.408 92.8312L134.408 92.8313C132.769 95.6437 131.863 97.1996 130.438 98.3689C127.588 100.71 124.262 101.302 121.526 101.302C119.558 101.302 117.888 100.998 116.904 100.819L116.89 100.817C114.058 100.298 108.806 99.3369 107.056 95.1882C106.712 94.3659 106.708 93.8436 106.708 93.1815C106.708 92.5283 106.708 91.4282 106.404 88.8117L106.386 88.6371C106.247 87.4527 106.091 86.1125 106.43 84.394L106.469 84.189C107.462 79.1411 107.731 78.3699 107.954 77.9348C108.467 76.9425 109.685 76.5511 110.678 77.0603C111.64 77.5609 112.04 78.7264 111.587 79.7056C111.487 79.9923 111.204 81.0677 110.438 84.9718L110.398 85.1768C110.18 86.2785 110.276 87.1137 110.403 88.1716L110.42 88.3504C110.75 91.1923 110.75 92.4801 110.75 93.1771C110.75 93.2999 110.75 93.4351 110.754 93.5154C110.756 93.5462 110.771 93.5874 110.781 93.6166C111.075 94.3147 111.7 94.8619 112.476 95.2953C113.143 95.668 113.861 95.0144 113.718 94.2633C112.882 89.8864 112.968 84.8626 114.628 81.7312C115.185 80.6661 116.214 78.9247 117.192 77.2985L117.195 77.2938L117.198 77.2898L117.2 77.2869L117.201 77.285C117.202 77.2823 117.204 77.2798 117.206 77.2774L117.209 77.2719L117.276 77.1624L117.364 77.0166C117.411 76.9386 117.458 76.8606 117.505 76.7823C117.542 76.7193 117.58 76.6573 117.617 76.5963C117.642 76.555 117.667 76.5141 117.691 76.4735L117.715 76.4334L117.748 76.3778C118.179 75.6633 118.583 75.007 118.906 74.4847L118.912 74.475C118.954 74.4041 118.996 74.3332 119.037 74.2664C119.068 74.214 119.098 74.1661 119.129 74.1224C119.159 74.0738 119.187 74.0269 119.214 73.9819C119.25 73.9219 119.284 73.8655 119.317 73.8139C119.327 73.7972 119.337 73.781 119.347 73.7653C119.362 73.7401 119.377 73.7159 119.391 73.6917C119.404 73.6742 119.413 73.6568 119.421 73.6437C119.452 73.5912 119.482 73.5432 119.509 73.504L119.539 73.4557L119.539 73.4554C119.577 73.3967 119.605 73.3518 119.622 73.3207C119.624 73.3174 119.625 73.3143 119.627 73.3112C119.629 73.308 119.631 73.3043 119.634 73.3005L119.637 73.2948L119.637 73.2947C119.641 73.2899 119.644 73.285 119.646 73.281L119.648 73.2776L119.65 73.2743L119.653 73.2698L119.654 73.2683C119.895 72.9179 120.134 72.5798 120.368 72.2556C120.898 71.525 120.279 70.591 119.456 70.962C118.045 71.5989 117.094 72.3242 116.885 72.4897C116.011 73.1867 114.739 73.0427 114.048 72.1682C113.355 71.2936 113.499 70.019 114.374 69.3219C115.414 68.5042 120.927 64.4822 127.531 66.3711C132.279 67.7219 134.773 71.3461 135.717 72.7181L135.722 72.7254L135.739 72.7507C136.513 73.8863 138.799 77.2396 138.725 81.9087C138.67 85.4957 137.172 88.077 134.447 92.7639ZM90.386 71.0974C90.8211 69.996 91.2256 68.9817 91.5633 68.1641C90.8138 68.3052 90.098 68.5657 89.51 68.9744C88.196 69.8724 87.8061 70.9476 86.9811 73.5101L86.9685 73.5489C86.2042 75.9012 85.1612 79.1113 82.6041 83.4179C82.2519 84.0117 81.9304 84.5457 81.6306 85.0375C80.1347 87.4981 79.6268 88.3917 79.8015 89.2093C80.0358 90.3065 82.1064 91.1781 83.3709 91.3179C82.9052 88.8383 83.0334 86.558 83.7492 84.518C84.153 83.367 84.6861 82.5366 85.3524 81.4987L85.3524 81.4986L85.3776 81.4594L85.4259 81.3845L85.426 81.3842C86.0114 80.4761 86.7391 79.3472 87.6679 77.5859C88.2208 76.5382 89.3717 73.6484 90.386 71.0974ZM89.0559 158.983C87.6545 161.845 85.9099 164.488 84.8229 165.797C83.9222 163.363 82.3579 157.787 82.7713 153.301C82.7829 153.171 82.7975 153.043 82.8164 152.918C82.9821 151.533 83.3504 150.261 84.0052 149.242C84.4372 148.573 85.6334 148.164 86.9924 148.164C87.9951 148.164 89.0864 148.384 90.0249 148.887H90.0322C90.5357 149.157 91.2211 149.701 91.2923 151.284C91.3957 153.421 90.3771 156.295 89.0559 158.983ZM165.953 127.25C166.015 127.125 165.948 126.993 165.839 126.906C165.288 126.463 162.771 125.204 159.795 123.934C159.334 123.738 158.798 123.865 158.506 124.272C157.228 126.05 155.488 129.28 154.226 131.622L154.201 131.668L154.048 131.952C153.366 133.216 152.724 134.404 152.164 135.37C150.507 138.213 150.37 140.636 150.249 142.77L150.249 142.771L150.249 142.772C150.109 145.296 149.965 147.905 147.122 149.8C145.221 151.068 143.507 151.363 134.724 152.703C133.62 152.875 133.226 153.045 132.734 153.261C132.148 153.516 131.505 153.794 130.07 154.074C129.655 154.156 129.326 154.455 129.117 154.823L129.111 154.835L129.103 154.848C128.423 156.023 126.143 157.734 124.211 158.576C123.749 158.777 123.426 159.218 123.397 159.721C123.318 161.085 123.027 162.427 122.324 163.343C121.726 164.116 120.896 164.548 119.913 164.593C119.875 164.595 119.837 164.596 119.8 164.597C119.774 164.597 119.749 164.597 119.723 164.597L119.671 164.598L119.622 164.598C117.763 164.598 116.695 163.784 116.116 163.08C116.069 163.023 115.965 163.043 115.947 163.114C115.409 165.249 114.271 167.141 111.987 167.599C111.661 167.668 111.354 167.698 111.07 167.698C109.907 167.698 109.101 167.207 108.598 166.741C108.389 166.55 108.016 166.631 107.937 166.903C107.672 167.826 107.309 168.681 106.811 169.376C106.05 170.44 105.031 171.064 103.854 171.189C103.688 171.208 103.528 171.215 103.369 171.215C102.381 171.215 101.495 170.879 100.791 170.227C100.165 169.652 98.7034 169.682 98.2112 170.375C98.1299 170.489 98.045 170.602 97.9562 170.712C96.587 172.411 94.5572 173.271 91.9263 173.271H91.7488C89.4585 173.234 88.303 172.163 87.7356 171.265C87.4874 170.872 87.3041 170.437 87.175 169.974C86.9214 169.062 85.4511 168.755 84.5052 168.755C84.441 168.755 84.3825 168.747 84.3287 168.74L84.2987 168.736C84.2863 168.734 84.2741 168.733 84.2622 168.732C83.6078 168.626 83.3585 168.085 83.1561 167.645L83.149 167.63C83.1134 167.548 82.9787 167.582 82.9896 167.671C83.0817 168.412 83.1887 169.161 83.3077 169.916C83.376 170.336 83.376 171.377 81.9791 172.055C81.0028 172.531 79.344 172.774 77.493 172.774C74.1011 172.774 70.0617 171.956 68.4 170.249C68.0636 169.979 67.6819 169.669 67.334 169.266C66.7425 168.583 65.5702 168.293 64.7918 168.753C64.1607 169.125 63.6987 169.204 63.3841 169.204C63.2401 169.204 63.1267 169.19 63.0393 169.178C61.4257 168.954 60.3508 167.432 59.4843 165.33C59.2919 164.863 58.7787 164.617 58.2767 164.67C57.3293 164.784 56.3719 164.838 55.4218 164.852C54.4992 164.859 53.5562 164.826 52.7268 164.394C51.8989 163.954 51.4057 163.193 51.0957 162.338C51.0607 162.253 50.9579 162.218 50.8753 162.259C50.8616 162.266 50.8477 162.272 50.8337 162.278C50.7609 162.309 50.6852 162.328 50.6025 162.342C50.1294 162.422 49.6639 162.418 49.217 162.342C48.9931 162.304 48.7704 162.247 48.558 162.172C48.3033 162.086 48.0617 161.968 47.8305 161.824C47.7007 161.747 47.5324 161.88 47.5927 162.019L47.6179 162.077C52.4969 173.177 55.4464 179.878 62.4311 183.603C65.3887 185.183 69.8404 185.691 78.7021 186.703L78.7327 186.707C85.2066 187.444 90.1089 187.44 98.2298 187.425C106.044 187.414 108.337 187.076 109.871 186.766C112.435 186.239 113.778 185.695 115.192 185.123L115.192 185.122L115.208 185.116L115.254 185.098C116.814 184.468 118.437 183.812 121.519 183.216C124.483 182.646 127.948 182.52 134.849 182.271L134.867 182.27C138.649 182.13 140.647 182.126 141.847 182.126H141.848H141.849H141.849H141.849H141.849H141.849H141.85H141.85H141.85H141.85H141.85C143.228 182.122 143.244 182.121 143.736 181.97C149.028 180.396 152.223 175.459 155.313 170.681C157.782 166.862 159.732 163.844 160.564 159.286C160.977 157.03 160.879 155.633 160.716 153.322V153.322L160.716 153.313C160.545 150.914 160.318 147.624 160.534 141.767C160.716 136.782 161.063 134.835 162.146 132.7C162.899 131.209 163.708 130.247 164.419 129.402L164.419 129.402L164.441 129.376C165.033 128.681 165.535 128.091 165.953 127.25ZM80.5424 153.024C80.1945 156.061 79.9821 160.118 80.4738 165.403C80.6136 166.894 80.8071 168.443 81.0487 170.01C80.6325 170.237 79.3899 170.555 77.1795 170.521C74.003 170.457 70.9109 169.658 69.9825 168.654L69.8385 168.524C69.0659 167.903 68.5593 167.494 68.4866 166.385C68.4635 166.011 68.6234 165.64 68.9669 165.116C69.156 164.821 69.4063 164.48 69.7162 164.06C70.2503 163.344 70.9124 162.451 71.5905 161.3C73.5781 157.941 74.3319 156.904 75.2893 155.594C75.365 155.488 75.445 155.382 75.528 155.273C76.0925 154.5 76.7546 153.576 77.75 152.058C78.492 150.93 79.109 150.047 79.6169 149.354C80.4652 148.201 81.021 147.575 81.3775 147.234C81.3252 147.757 81.2074 148.492 81.0938 149.17L81.0624 149.363C80.8991 150.368 80.7022 151.581 80.5424 153.024ZM79.0636 105.852L79.0637 105.852L79.0641 105.852C79.0732 105.84 79.0822 105.829 79.0903 105.818C79.0465 105.811 79.0013 105.806 78.9586 105.802L78.955 105.802L78.8531 105.794C78.4209 105.733 78.0237 105.707 77.6716 105.707C76.7825 105.707 76.1612 105.877 75.9415 106.206C75.3389 107.095 75.1687 108.277 74.9156 110.064L74.9035 110.147V110.147L74.9035 110.148C74.7354 111.31 74.5279 112.747 74.1401 114.418C74.0644 114.743 74.0338 114.944 74.0032 115.202C73.8563 116.383 73.6249 117.412 71.7435 121.751C71.0293 123.394 71.1926 124.128 71.4418 125.248L71.4437 125.257C71.4888 125.45 71.531 125.644 71.5689 125.84C71.7231 126.264 72.829 127.06 73.5521 127.407C73.0298 123.8 74.1953 121.12 75.0888 119.075C75.3724 118.425 75.6185 117.86 75.7698 117.368C75.9864 116.632 75.9979 116.001 76.0122 115.214L76.0128 115.18C76.0361 113.648 76.0651 111.743 77.5799 108.377C78.1355 107.134 78.6032 106.487 79.0126 105.921L79.0293 105.898C79.0352 105.889 79.0416 105.881 79.0481 105.872L79.0636 105.852ZM76.6055 148.619C76.5037 147.579 76.3217 146.537 75.9434 145.556C75.9268 145.525 75.875 145.412 75.8334 145.322L75.8325 145.32L75.8294 145.313L75.797 145.243L75.7805 145.208C75.7392 145.132 75.694 145.059 75.6487 144.986L75.6381 144.969L75.603 144.912C75.5888 144.889 75.5747 144.865 75.5609 144.842C75.5591 144.84 75.5575 144.839 75.5563 144.838C75.5546 144.837 75.5536 144.836 75.5536 144.834C75.5517 144.831 75.5501 144.829 75.5489 144.828C75.548 144.827 75.5473 144.826 75.5469 144.825L75.5464 144.824L75.5462 144.822L75.5314 144.806L75.5187 144.792L75.4936 144.765L75.492 144.763L75.4918 144.763C75.4697 144.738 75.4481 144.714 75.4255 144.69C75.3643 144.629 75.2975 144.569 75.2318 144.516C75.2269 144.509 75.2219 144.504 75.217 144.499C75.2106 144.492 75.2043 144.488 75.1985 144.485C75.1679 144.459 75.1229 144.424 75.0734 144.395C75.0352 144.375 74.9981 144.354 74.9611 144.333L74.9609 144.333L74.9083 144.304L74.891 144.294L74.867 144.281L74.8391 144.267C74.8158 144.252 74.759 144.229 74.7066 144.21L74.7058 144.21L74.7043 144.209C74.7038 144.209 74.7034 144.209 74.703 144.208L74.7025 144.207L74.7022 144.206L74.6947 144.203L74.6877 144.201L74.6872 144.2L74.6869 144.2C74.6806 144.198 74.6745 144.196 74.6689 144.194C74.6618 144.189 74.6563 144.186 74.6514 144.184L74.6461 144.181L74.6425 144.179L74.6416 144.179C74.6306 144.175 74.6235 144.172 74.6163 144.172C74.6092 144.172 74.6092 144.168 74.6092 144.168C74.5929 144.16 74.5808 144.156 74.5711 144.153C74.5669 144.151 74.5632 144.15 74.5597 144.149L74.4858 144.122L74.3816 144.083C73.8339 143.88 73.2773 143.674 72.697 143.589C72.6954 143.589 72.6927 143.588 72.6896 143.587L72.6894 143.587C72.6847 143.586 72.679 143.584 72.6738 143.584H72.6593C72.5879 143.584 72.4396 143.57 72.4323 143.57C72.342 143.565 72.2548 143.565 72.1674 143.57C72.1252 143.57 72.0844 143.57 72.0467 143.574H72.0132C72.0065 143.574 71.9987 143.575 71.9905 143.576C71.981 143.577 71.9709 143.578 71.9608 143.578C71.9535 143.586 71.942 143.586 71.9375 143.586H71.9302L71.887 143.598L71.8442 143.61L71.7523 143.636C71.6939 143.652 71.6352 143.668 71.5772 143.685C71.5482 143.693 71.5194 143.702 71.4909 143.711L71.4494 143.731L71.4492 143.731L71.449 143.732C71.4 143.755 71.3491 143.78 71.3016 143.81C71.2493 143.84 71.1953 143.878 71.143 143.904C71.1407 143.907 71.1376 143.91 71.1341 143.912C71.131 143.914 71.1276 143.916 71.1241 143.916L71.1126 143.928C71.0788 143.961 71.0443 143.994 71.0098 144.027C70.9744 144.06 70.9391 144.094 70.9044 144.128C70.8811 144.152 70.817 144.23 70.772 144.287C70.7604 144.294 70.7531 144.302 70.7531 144.309L70.7458 144.316C70.7414 144.321 70.7414 144.323 70.7342 144.328C70.7331 144.329 70.7322 144.33 70.7315 144.331L70.7305 144.332C70.7296 144.334 70.729 144.334 70.728 144.335L70.7269 144.335C70.7081 144.369 70.689 144.396 70.6819 144.411C70.4387 144.789 70.1929 145.164 69.9397 145.538C69.3561 146.432 68.7581 147.321 68.1528 148.204L68.0943 148.289C67.5609 149.06 67.0276 149.83 66.4983 150.601C66.1912 151.048 65.8885 151.49 65.5859 151.937C65.5335 152.012 65.484 152.088 65.4346 152.164C65.5923 152.194 65.7499 152.224 65.908 152.255L65.9123 152.256L65.9151 152.256C66.1149 152.295 66.3154 152.334 66.5171 152.372C67.3306 152.52 68.1411 152.663 68.9663 152.776C70.6657 153.008 72.3931 153.114 74.1144 153.053C74.1974 153.048 74.2804 153.053 74.3574 153.067C74.7707 152.477 75.258 151.772 75.8795 150.829C76.2243 150.303 76.5532 149.815 76.8631 149.364C76.7234 149.149 76.6361 148.891 76.6055 148.619ZM66.655 163.575C68.9425 160.346 70.4078 156.954 70.5547 155.645C70.2972 155.623 70.0415 155.596 69.7847 155.568L69.6148 155.55H69.6001C64.8376 155.531 61.4457 155.243 59.5148 154.172C59.4274 155.626 59.5177 157.939 60.0138 159.665L60.0174 159.677L60.0175 159.678C60.2364 160.443 60.4972 161.355 60.7865 162.27C61.5098 164.537 62.4222 166.824 63.3461 166.952C63.5775 166.929 64.7402 166.274 66.655 163.575ZM67.1668 144.858V144.866C67.1539 144.883 67.1424 144.901 67.1309 144.918C67.1217 144.933 67.1125 144.947 67.1027 144.96C66.3645 146.047 65.6201 147.129 64.8752 148.211L64.6349 148.56C64.2071 149.177 63.7836 149.794 63.3631 150.416C63.2569 150.571 63.1341 150.733 63.0063 150.901C62.8558 151.1 62.6983 151.308 62.5526 151.524L62.4145 151.492C61.7826 151.345 61.1524 151.197 60.5272 151.021C59.9785 150.862 59.4373 150.692 58.9061 150.48C58.7998 150.442 58.698 150.4 58.599 150.352C58.5118 150.174 58.3867 150.014 58.2354 149.893C58.2396 149.889 58.2396 149.879 58.2425 149.874C58.4362 149.48 58.6325 149.083 58.826 148.69C59.1928 147.967 59.5609 147.248 59.9698 146.551C60.6974 145.294 61.5747 144.015 62.8057 143.2C62.867 143.155 62.9338 143.112 62.9994 143.072C63.4767 142.772 63.954 142.561 64.5404 142.488C64.6087 142.481 65.0206 142.484 65.214 142.5C65.2475 142.5 65.2751 142.504 65.2941 142.504H65.2984L65.3089 142.507L65.3285 142.513C65.3426 142.517 65.3602 142.523 65.3814 142.53C65.4442 142.55 65.507 142.567 65.5699 142.584C65.6511 142.606 65.7324 142.628 65.8136 142.655C65.8631 142.679 65.9081 142.701 65.9576 142.727C65.985 142.743 66.0125 142.76 66.04 142.776C66.1383 142.834 66.2365 142.891 66.3286 142.965C66.1395 142.821 66.5906 143.287 66.5906 143.254C66.9543 143.757 67.065 144.177 67.1668 144.858ZM57.1525 146.065C58.0722 144.339 59.1736 142.68 60.6884 141.435C60.601 141.375 60.4832 141.302 60.374 141.256C59.8979 141.065 59.363 141.034 58.8528 141.004H58.8525L58.8022 141.001L58.6817 140.994C58.6381 140.991 58.5944 140.989 58.5505 140.986L58.5463 140.986L58.5418 140.985C58.055 140.955 57.5544 140.923 57.1336 141.172C56.7024 141.422 56.3723 141.83 56.0632 142.213L56.0204 142.266C55.1648 143.311 54.3776 144.424 53.65 145.556L53.5073 145.778C53.036 146.51 52.5519 147.262 52.1396 148.043C52.3476 148.152 52.5557 148.254 52.7638 148.353C53.2178 148.563 53.6906 148.738 54.1679 148.889C54.6148 149.032 55.0732 149.164 55.5314 149.263C55.5882 149.166 55.6377 149.071 55.6871 148.972C55.8122 148.721 55.936 148.47 56.0597 148.218C56.4153 147.496 56.7702 146.775 57.1525 146.065ZM58.2818 161.763C58.2062 161.827 58.1421 161.895 58.0853 161.975C58.0329 161.99 57.979 162.002 57.9457 162.01C57.5818 162.048 57.2108 162.074 56.8441 162.098C56.1398 162.143 55.424 162.173 54.7124 162.147C54.315 162.133 53.9556 162.071 53.7927 161.818C53.5721 161.484 53.4815 160.939 53.4019 160.461L53.3852 160.361C53.376 160.307 53.3669 160.253 53.3576 160.202C52.8921 157.616 52.8308 154.921 53.1612 152.305C54.513 152.789 55.9026 153.165 57.3287 153.399C57.0216 155.758 57.5441 159.221 57.851 160.282L57.8956 160.436L57.8963 160.438C58.0241 160.88 58.1529 161.326 58.2818 161.763ZM50.6709 145.234C51.6488 143.615 52.7386 142.05 53.9348 140.582C53.3601 139.913 52.6674 139.511 51.7812 139.34C51.483 139.287 50.994 139.238 50.623 139.344C50.2904 139.443 50.0633 139.743 49.8481 140.027C49.8005 140.09 49.7536 140.152 49.7062 140.211C49.0019 141.097 48.3806 142.059 47.8248 143.043C47.5323 143.568 47.253 144.107 47.0027 144.655C46.9697 144.724 46.9286 144.803 46.8844 144.889C46.7803 145.089 46.6586 145.324 46.582 145.541C46.6113 145.557 46.6375 145.578 46.6647 145.6L46.681 145.613C46.7445 145.664 46.8254 145.728 46.9027 145.789L46.9042 145.79L46.9083 145.793C47.0008 145.867 47.0874 145.935 47.1321 145.972C47.4609 146.222 47.7986 146.461 48.1463 146.676C48.6003 146.957 49.0281 147.146 49.5011 147.279C49.7549 146.735 50.0789 146.206 50.3948 145.689C50.4882 145.536 50.5809 145.385 50.6709 145.234ZM44.7095 146.979C44.7292 146.902 44.8272 146.892 44.8734 146.956C45.1862 147.392 45.616 147.772 46.0761 148.131L46.1282 148.171L46.1284 148.171C46.3172 148.314 46.5053 148.457 46.696 148.592C46.7284 148.615 46.7438 148.655 46.7345 148.694C46.2526 150.693 45.92 152.811 45.909 154.903C45.9084 155.018 45.7338 155.043 45.707 154.93C45.1104 152.434 44.3351 148.444 44.7095 146.979ZM50.2965 156.794C50.218 154.993 50.3343 153.202 50.5772 151.415H50.5788V151.41C50.2871 151.275 49.99 151.148 49.6962 151.022C49.5591 150.963 49.4228 150.905 49.2881 150.846C48.8603 150.661 48.6027 150.55 48.3073 150.43C47.9625 152.243 47.8039 154.091 47.8751 155.942C47.913 156.885 48.0191 157.896 48.4995 158.728C48.6812 159.038 48.9535 159.342 49.2109 159.508C49.2325 159.522 49.252 159.534 49.27 159.546C49.4163 159.639 49.4581 159.666 49.681 159.721C49.6906 159.723 49.7121 159.725 49.735 159.727C49.7504 159.729 49.7665 159.73 49.78 159.732H49.7944C49.8439 159.732 49.9604 159.725 49.9153 159.739C50.1423 159.706 50.3649 159.713 50.5772 159.763V159.758C50.573 159.754 50.573 159.747 50.573 159.739C50.4405 158.763 50.3343 157.782 50.2965 156.794Z" fill="#053dad" fill-opacity="0.8"/></g></svg>
