<svg clip-rule="evenodd" fill-rule="evenodd" stroke-linejoin="round" stroke-miterlimit="2" viewBox="0 0 560 400" xmlns="http://www.w3.org/2000/svg"><g transform="matrix(9.375 0 0 9.375 130 50)"><circle cx="16" cy="16" fill="#ed1968" r="16"/><path d="m12.7 26.9c-1.278-.354-2.469-.967-3.5-1.8-1.016-.783-1.895-1.729-2.6-2.8-.752-1.127-1.294-2.38-1.6-3.7-.35-1.581-.35-3.219 0-4.8.298-1.337.805-2.62 1.5-3.8 1.018-1.633 2.473-2.95 4.2-3.8.606-.326 1.243-.594 1.9-.8 1 1.2 2 2.5 3 3.8.1.2.3.3.4.5-1.003.042-1.988.28-2.9.7-.806.421-1.52.999-2.1 1.7-.571.754-1.01 1.6-1.3 2.5-.267 1.089-.232 2.23.1 3.3l4.3-3.4c1 1.3 2 2.5 3 3.8-1.4 1.1-2.9 2.2-4.3 3.4 1.4 1.8 2.9 3.7 4.3 5.6-1.478.175-2.977.039-4.4-.4zm9.53-12.114c-.037-.164-.08-.326-.13-.486-.135.106-3.11 2.38-4.3 3.4-1-1.3-2-2.5-3-3.8 1.4-1.1 2.9-2.2 4.3-3.4-1.4-1.8-2.8-3.6-4.3-5.5 0-.1-.1-.1-.1-.2h1.4c2.565.024 5.042.944 7 2.6.955.789 1.766 1.736 2.4 2.8.746 1.145 1.225 2.444 1.4 3.8.268 1.559.234 3.154-.1 4.7-.286 1.295-.83 2.52-1.6 3.6-.672 1.037-1.517 1.951-2.5 2.7-.957.831-2.083 1.446-3.3 1.8-.9-1.1-1.7-2.1-2.5-3.2-.299-.342-.567-.71-.8-1.1 1.917.006 3.73-.882 4.9-2.4.576-.737.985-1.59 1.2-2.5.186-.759.196-1.697.03-2.814zm-4.723 8.373c.691.943 1.408 1.867 2.15 2.77.95-.343 1.827-.861 2.588-1.525.922-.705 1.715-1.564 2.344-2.54.71-.997 1.213-2.127 1.478-3.322.314-1.452.345-2.951.09-4.446-.164-1.254-.608-2.454-1.301-3.512-.591-.992-1.349-1.876-2.24-2.611-1.799-1.522-4.07-2.378-6.427-2.422.927 1.18 1.866 2.383 3.503 4.489l.44.564-.544.465c-.711.605-1.438 1.192-2.178 1.761-.07.055-.92.708-1.558 1.202.263.335.568.717 1.034 1.3.46.575.765.958 1.028 1.293.464-.383.97-.785 1.576-1.255.098-.076 1.696-1.306 2.147-1.66l.856-.673.323 1.04c.373 1.198.412 2.476.114 3.695-.239 1.014-.695 1.965-1.336 2.786-1.02 1.323-2.485 2.233-4.123 2.559z" fill="#fff" fill-rule="nonzero"/></g></svg>
