<svg version="1.1" id="Layer_1" xmlns="http://www.w3.org/2000/svg" x="0" y="0" viewBox="0 0 40 40" xml:space="preserve"><style>.st2{fill:#fff}.st7{fill:#ffc95b}</style><linearGradient id="SVGID_1_" gradientUnits="userSpaceOnUse" x1="474.567" y1="-2347.178" x2="437.275" y2="-2347.178" gradientTransform="rotate(90 -945.568 -1381.61)"><stop offset=".001" stop-color="#ff2d55"/><stop offset="1" stop-color="#ffbc5b"/></linearGradient><path d="M37 26.2V13.6c0-2.1-1.1-4.1-3-5.2L23 2.1c-1.9-1.1-4.1-1.1-6 0L6 8.4c-1.9 1.1-3 3.1-3 5.2v12.6c0 2.1 1.1 4.1 3 5.2l11 6.3c1.9 1.1 4.1 1.1 6 0l11-6.3c1.8-1.1 3-3 3-5.2z" fill="url(#SVGID_1_)"/><linearGradient id="SVGID_2_" gradientUnits="userSpaceOnUse" x1="-283.685" y1="415.275" x2="-283.685" y2="415.211" gradientTransform="matrix(125 0 0 -150 35481.7 62305)"><stop offset="0" stop-color="#a524b3"/><stop offset="1" stop-color="#ff2d55"/></linearGradient><path d="M17 13.8v9.6h8l-8-9.6z" fill="url(#SVGID_2_)"/><path class="st2" d="M9 23.4h8v-9.6l-8 9.6z"/><path d="M10.5 26c.7 1 1.6 1.8 2.6 2.6h15.4c1-.7 1.8-1.6 2.6-2.6H10.5z" fill="#fc9965"/><path d="M13.1 28.6c2.1 1.6 4.8 2.6 7.7 2.6s5.5-1 7.7-2.6H13.1z" fill="#ff2d55"/><linearGradient id="SVGID_3_" gradientUnits="userSpaceOnUse" x1="-284.512" y1="415.328" x2="-284.512" y2="415.264" gradientTransform="matrix(91.7 0 0 -110 26117.799 45705)"><stop offset="0" stop-color="#a524b3"/><stop offset="1" stop-color="#ff2d55"/></linearGradient><path d="M25.1 18.9v7H31l-5.9-7z" fill="url(#SVGID_3_)"/><path d="M25.1 23.4H9c.4.9.9 1.8 1.5 2.6h14.6v-2.6z" fill="#ffbc5b"/><path class="st2" d="M19.3 26h5.9v-7l-5.9 7z"/><circle class="st7" cx="25.1" cy="13.8" r="3.2"/><circle class="st7" cx="17" cy="10.3" r="1.6"/></svg>
